<svg xmlns="http://www.w3.org/2000/svg" viewBox="0 0 512 512" role="img" aria-label="Playbook Live icon">
  <defs>
    <linearGradient id="bg" x1="0" y1="0" x2="1" y2="1">
      <stop offset="0" stop-color="#1b7cff"/>
      <stop offset="0.55" stop-color="#0b1b31"/>
      <stop offset="1" stop-color="#22c55e"/>
    </linearGradient>
    <linearGradient id="court" x1="0" y1="0" x2="0" y2="1">
      <stop offset="0" stop-color="#fff8e8"/>
      <stop offset="1" stop-color="#eadcbf"/>
    </linearGradient>
    <filter id="shadow" x="-30%" y="-30%" width="160%" height="160%">
      <feDropShadow dx="0" dy="12" stdDeviation="18" flood-color="#000" flood-opacity="0.35"/>
    </filter>
  </defs>
  <rect width="512" height="512" rx="112" fill="url(#bg)"/>
  <rect x="93" y="58" width="326" height="396" rx="46" fill="url(#court)" filter="url(#shadow)"/>
  <rect x="121" y="86" width="270" height="340" rx="26" fill="none" stroke="#28405d" stroke-opacity="0.38" stroke-width="10"/>
  <path d="M121 256h270" stroke="#28405d" stroke-opacity="0.32" stroke-width="7"/>
  <circle cx="256" cy="256" r="45" fill="none" stroke="#28405d" stroke-opacity="0.32" stroke-width="7"/>
  <path d="M186 150c45 44 88 46 137 0" fill="none" stroke="#22c55e" stroke-width="18" stroke-linecap="round"/>
  <path d="M311 140l29 6-14 27" fill="none" stroke="#22c55e" stroke-width="18" stroke-linecap="round" stroke-linejoin="round"/>
  <path d="M179 339c63-49 98-49 154 0" fill="none" stroke="#f8c14f" stroke-width="15" stroke-linecap="round" stroke-dasharray="30 24"/>
  <circle cx="178" cy="181" r="35" fill="#1b7cff" stroke="#fff" stroke-width="8"/>
  <text x="178" y="194" text-anchor="middle" font-family="Arial, sans-serif" font-size="42" font-weight="900" fill="#fff">1</text>
  <circle cx="334" cy="333" r="35" fill="#f0445a" stroke="#fff" stroke-width="8"/>
  <text x="334" y="346" text-anchor="middle" font-family="Arial, sans-serif" font-size="42" font-weight="900" fill="#fff">1</text>
  <circle cx="256" cy="354" r="18" fill="#e97724" stroke="#8b3614" stroke-width="5"/>
  <path d="M238 354h36M256 336v36" stroke="#8b3614" stroke-width="4" stroke-linecap="round"/>
</svg>
